<?xml version="1.0" encoding="utf-8"?>
<!-- Generator: Adobe Illustrator 16.0.0, SVG Export Plug-In . SVG Version: 6.00 Build 0)  -->
<!DOCTYPE svg PUBLIC "-//W3C//DTD SVG 1.1//EN" "http://www.w3.org/Graphics/SVG/1.1/DTD/svg11.dtd">
<svg version="1.1" id="圖層_1" xmlns="http://www.w3.org/2000/svg" xmlns:xlink="http://www.w3.org/1999/xlink" x="0px" y="0px"
	 width="200px" height="200px" viewBox="0 0 200 200" enable-background="new 0 0 200 200" xml:space="preserve">
<path fill="#FF931E" d="M200,177.033C200,189.718,189.717,200,177.032,200H22.968C10.283,200,0,189.718,0,177.033V22.967
	C0,10.283,10.283,0,22.968,0h154.064C189.717,0,200,10.283,200,22.967V177.033z"/>
<g>
	<path fill="#FFF" d="M61.928,10.918c-4.418,0-7.432,0.786-9.041,2.358c-1.611,1.572-2.415,4.531-2.415,8.872
		c0,4.268,0.786,7.17,2.358,8.704c1.572,1.536,4.529,2.302,8.872,2.302c4.417,0,7.449-0.786,9.097-2.358
		c1.646-1.572,2.471-4.529,2.471-8.872c0-4.268-0.786-7.168-2.358-8.704C69.34,11.687,66.345,10.918,61.928,10.918z"/>
	<path fill="#FFF" d="M69.172,53.482c-0.712-0.298-1.667-0.523-2.864-0.674c-1.199-0.149-2.695-0.225-4.492-0.225
		s-3.295,0.076-4.492,0.225c-1.199,0.151-2.153,0.375-2.864,0.674c-0.712,0.3-1.465,0.674-1.764,1.123
		c-0.3,0.449-0.696,0.937-0.696,1.46V161.52c0,5.464-0.016,9.545-0.539,12.24c-0.524,2.695-1.224,4.886-2.347,6.57
		s-2.504,2.9-4.262,3.65c-1.76,0.747-3.843,1.123-6.314,1.123c-1.723,0-3.224-0.096-4.533-0.281
		c-1.309-0.188-2.182-0.281-2.631-0.281c-0.523,0-0.951,0.131-1.288,0.394c-0.337,0.261-0.633,0.691-0.896,1.292
		c-0.261,0.598-0.448,1.384-0.561,2.357c-0.112,0.973-0.168,2.135-0.168,3.482c0,0.972,0.02,1.797,0.057,2.471
		c0.039,0.674,0.132,1.328,0.281,1.965c0.151,0.635,0.393,1.197,0.73,1.685c0.337,0.485,0.955,0.916,1.853,1.292
		c0.898,0.373,2.19,0.71,3.875,1.01c1.685,0.299,3.724,0.449,6.121,0.449c5.315,0,9.844-0.805,13.589-2.414
		c3.743-1.611,6.812-3.986,9.209-7.131c2.395-3.145,4.086-7.02,5.209-11.624S71,169.117,71,161.631V56.065
		c0-0.523-0.082-1.011-0.381-1.46C70.319,54.156,69.882,53.782,69.172,53.482z"/>
	<path fill="#FFF" d="M196.244,84.366c-1.498-6.587-3.874-12.334-7.131-17.239c-3.257-4.903-7.488-8.816-12.69-11.736
		c-5.204-2.92-11.475-4.38-18.812-4.38c-2.995,0-5.84,0.3-8.535,0.898c-2.695,0.6-5.391,1.555-8.086,2.864
		c-2.695,1.311-5.463,3.015-8.271,5.11c-2.808,2.097-5.72,4.68-8.72,7.749V7.1c0-0.598-0.135-1.123-0.433-1.572
		c-0.301-0.449-0.778-0.823-1.452-1.123c-0.674-0.298-1.606-0.523-2.803-0.674c-1.199-0.149-2.732-0.225-4.604-0.225
		c-1.797,0-3.294,0.076-4.491,0.225c-1.198,0.151-2.152,0.375-2.863,0.674c-0.713,0.3-0.949,0.674-1.21,1.123
		C105.882,5.977,106,6.502,106,7.1v150.039c0,0.601-0.136,1.123,0.089,1.572s0.55,0.807,1.224,1.067s1.471,0.467,2.52,0.618
		c1.048,0.148,2.289,0.225,3.787,0.225c1.572,0,2.849-0.076,3.859-0.225c1.011-0.151,1.846-0.357,2.52-0.618
		s1.206-0.618,1.506-1.067c0.299-0.449,0.496-0.972,0.496-1.572v-12.354c3,3.071,5.639,5.691,8.26,7.861
		c2.62,2.173,5.215,3.97,7.836,5.391c2.62,1.424,5.284,2.451,8.018,3.089c2.731,0.636,5.701,0.954,8.922,0.954
		c6.963,0,13.136-1.311,18.526-3.93c5.391-2.62,9.938-6.402,13.645-11.344s6.513-10.91,8.422-17.912
		c1.909-7,2.862-14.881,2.862-23.641C198.49,97.918,197.741,90.955,196.244,84.366z M177.874,121.37
		c-0.942,4.604-2.45,8.76-4.521,12.466s-4.764,6.682-8.078,8.928c-3.315,2.246-7.307,3.369-11.977,3.369
		c-5.049,0-9.925-1.628-14.594-4.885c-4.671-3.257-9.705-7.991-14.705-14.207V86.724c3-3.743,5.721-6.851,8.319-9.321
		c2.6-2.471,5.114-4.492,7.524-6.064s4.787-2.695,7.123-3.369c2.334-0.674,4.709-1.011,7.119-1.011
		c4.822,0,8.853,1.143,12.092,3.425c3.239,2.285,5.838,5.298,7.796,9.041c1.959,3.745,3.335,8.049,4.127,12.915
		c0.79,4.868,1.187,9.883,1.187,15.049C179.287,112.105,178.814,116.766,177.874,121.37z"/>
</g>
</svg>
